<mxfile host="65bd71144e">
    <diagram id="R9lZvX5LPHoqeBm0NEup" name="Page-1">
        <mxGraphModel dx="900" dy="768" grid="1" gridSize="10" guides="1" tooltips="1" connect="1" arrows="1" fold="1" page="1" pageScale="1" pageWidth="850" pageHeight="1100" background="#FFFFFF" math="0" shadow="0">
            <root>
                <mxCell id="0"/>
                <mxCell id="1" parent="0"/>
                <mxCell id="oR36HvQrZMrKDbQmu3Ou-19" value="&lt;h1&gt;&lt;i&gt;&lt;font style=&quot;font-size: 18px&quot;&gt;Native compilation trajectory&lt;/font&gt;&lt;/i&gt;&lt;/h1&gt;" style="text;html=1;strokeColor=none;fillColor=none;spacing=5;spacingTop=-20;whiteSpace=wrap;overflow=hidden;fontColor=#575757;rounded=0;rotation=0;fontFamily=Helvetica;" parent="1" vertex="1">
                    <mxGeometry x="110" y="90" width="280" height="40" as="geometry"/>
                </mxCell>
                <mxCell id="oR36HvQrZMrKDbQmu3Ou-21" value="&lt;h1 style=&quot;font-size: 18px&quot;&gt;&lt;i&gt;&lt;font style=&quot;font-size: 18px&quot;&gt;WebAssembly compilation trajectory&lt;br&gt;&lt;/font&gt;&lt;/i&gt;&lt;/h1&gt;&lt;div style=&quot;font-size: 18px&quot;&gt;&lt;i&gt;&lt;br&gt;&lt;/i&gt;&lt;/div&gt;" style="text;html=1;strokeColor=none;fillColor=none;spacing=5;spacingTop=-20;whiteSpace=wrap;overflow=hidden;fontColor=#575757;rounded=0;fontFamily=Helvetica;" parent="1" vertex="1">
                    <mxGeometry x="110" y="270" width="545" height="35" as="geometry"/>
                </mxCell>
                <mxCell id="4" style="edgeStyle=none;html=1;exitX=1;exitY=0.5;exitDx=0;exitDy=0;entryX=0;entryY=0.5;entryDx=0;entryDy=0;" edge="1" parent="1" source="n1NXSLkz1-SfZJEVITjv-28" target="n1NXSLkz1-SfZJEVITjv-29">
                    <mxGeometry relative="1" as="geometry">
                        <Array as="points">
                            <mxPoint x="315" y="367"/>
                        </Array>
                    </mxGeometry>
                </mxCell>
                <mxCell id="6" value="emsc" style="edgeLabel;html=1;align=center;verticalAlign=middle;resizable=0;points=[];labelBorderColor=#FFFFFF;fontSize=14;" vertex="1" connectable="0" parent="4">
                    <mxGeometry x="0.1111" relative="1" as="geometry">
                        <mxPoint x="-10" y="13" as="offset"/>
                    </mxGeometry>
                </mxCell>
                <mxCell id="n1NXSLkz1-SfZJEVITjv-28" value="&lt;b&gt;&lt;i&gt;C++&lt;/i&gt;&lt;/b&gt;" style="shape=parallelogram;perimeter=parallelogramPerimeter;whiteSpace=wrap;html=1;fixedSize=1;fillColor=#647687;strokeColor=#314354;fontColor=#ffffff;rounded=1;strokeWidth=3;arcSize=9;shadow=1;fontFamily=Helvetica;" parent="1" vertex="1">
                    <mxGeometry x="145" y="327" width="140" height="80" as="geometry"/>
                </mxCell>
                <mxCell id="5" style="edgeStyle=none;html=1;exitX=1;exitY=0.5;exitDx=0;exitDy=0;" edge="1" parent="1" source="n1NXSLkz1-SfZJEVITjv-29" target="JAychxo9crdE4-j-2Qq6-11">
                    <mxGeometry relative="1" as="geometry"/>
                </mxCell>
                <mxCell id="7" value="JIT" style="edgeLabel;html=1;align=center;verticalAlign=middle;resizable=0;points=[];fontSize=14;" vertex="1" connectable="0" parent="5">
                    <mxGeometry x="0.2083" relative="1" as="geometry">
                        <mxPoint x="-8" y="13" as="offset"/>
                    </mxGeometry>
                </mxCell>
                <mxCell id="n1NXSLkz1-SfZJEVITjv-29" value="&lt;b&gt;&lt;i&gt;WebAssembly&lt;/i&gt;&lt;/b&gt;" style="shape=parallelogram;perimeter=parallelogramPerimeter;whiteSpace=wrap;html=1;fixedSize=1;fillColor=#1ba1e2;strokeColor=#006EAF;fontColor=#ffffff;rounded=1;strokeWidth=3;arcSize=9;shadow=1;fontFamily=Helvetica;" parent="1" vertex="1">
                    <mxGeometry x="355" y="327" width="150" height="80" as="geometry"/>
                </mxCell>
                <mxCell id="JAychxo9crdE4-j-2Qq6-11" value="&lt;b&gt;&lt;i&gt;x86 / 64&amp;nbsp;&lt;/i&gt;&lt;/b&gt;&lt;b&gt;&lt;i&gt;Bitecode&lt;br&gt;&lt;/i&gt;&lt;/b&gt;" style="shape=parallelogram;perimeter=parallelogramPerimeter;whiteSpace=wrap;html=1;fixedSize=1;rounded=1;strokeWidth=3;arcSize=9;shadow=1;fontFamily=Helvetica;fontColor=#333333;strokeColor=#666666;fillColor=#f5f5f5;" parent="1" vertex="1">
                    <mxGeometry x="565" y="327" width="150" height="80" as="geometry"/>
                </mxCell>
                <mxCell id="10" style="edgeStyle=none;html=1;exitX=1;exitY=0.5;exitDx=0;exitDy=0;entryX=0;entryY=0.5;entryDx=0;entryDy=0;" edge="1" parent="1" source="8" target="9">
                    <mxGeometry relative="1" as="geometry"/>
                </mxCell>
                <mxCell id="11" value="clang / g++" style="edgeLabel;html=1;align=center;verticalAlign=middle;resizable=0;points=[];fontSize=14;" vertex="1" connectable="0" parent="10">
                    <mxGeometry x="-0.1533" relative="1" as="geometry">
                        <mxPoint x="3" y="10" as="offset"/>
                    </mxGeometry>
                </mxCell>
                <mxCell id="8" value="&lt;b&gt;&lt;i&gt;C++&lt;/i&gt;&lt;/b&gt;" style="shape=parallelogram;perimeter=parallelogramPerimeter;whiteSpace=wrap;html=1;fixedSize=1;fillColor=#647687;strokeColor=#314354;fontColor=#ffffff;rounded=1;strokeWidth=3;arcSize=9;shadow=1;fontFamily=Helvetica;" vertex="1" parent="1">
                    <mxGeometry x="155" y="150" width="140" height="80" as="geometry"/>
                </mxCell>
                <mxCell id="9" value="&lt;b&gt;&lt;i&gt;x86 / 64&amp;nbsp;&lt;/i&gt;&lt;/b&gt;&lt;b&gt;&lt;i&gt;Bitecode&lt;br&gt;&lt;/i&gt;&lt;/b&gt;" style="shape=parallelogram;perimeter=parallelogramPerimeter;whiteSpace=wrap;html=1;fixedSize=1;rounded=1;strokeWidth=3;arcSize=9;shadow=1;fontFamily=Helvetica;fontColor=#333333;strokeColor=#666666;fillColor=#f5f5f5;" vertex="1" parent="1">
                    <mxGeometry x="375" y="150" width="150" height="80" as="geometry"/>
                </mxCell>
            </root>
        </mxGraphModel>
    </diagram>
</mxfile>